<svg width="512" height="512" viewBox="0 0 512 512" fill="none" xmlns="http://www.w3.org/2000/svg" role="img" aria-label="Cantera">
  <defs>
    <linearGradient id="cnBg" x1="128" y1="40" x2="384" y2="472" gradientUnits="userSpaceOnUse">
      <stop offset="0" stop-color="#D26A4F"/>
      <stop offset="1" stop-color="#A5382B"/>
    </linearGradient>
  </defs>

  <!-- app-icon squircle (maskable-safe) -->
  <rect x="16" y="16" width="480" height="480" rx="116" fill="url(#cnBg)"/>

  <!-- the ball's pentagon, faceted like quarried stone -->
  <path d="M256 117 L384.4 210.3 L335.3 361.2 L176.7 361.2 L127.6 210.3 Z" fill="#FFF6F2"/>
  <path d="M256 200 L305.5 235.9 L286.6 294.1 L225.4 294.1 L206.5 235.9 Z" fill="#A5382B" opacity="0.14"/>
  <g stroke="#A5382B" stroke-width="7" stroke-linecap="round" stroke-linejoin="round" fill="none" opacity="0.85">
    <path d="M256 200 L305.5 235.9 L286.6 294.1 L225.4 294.1 L206.5 235.9 Z"/>
    <path d="M256 200 L256 117"/>
    <path d="M305.5 235.9 L384.4 210.3"/>
    <path d="M286.6 294.1 L335.3 361.2"/>
    <path d="M225.4 294.1 L176.7 361.2"/>
    <path d="M206.5 235.9 L127.6 210.3"/>
  </g>
</svg>
