<svg width="512" height="512" viewBox="0 0 512 512" fill="none" xmlns="http://www.w3.org/2000/svg" role="img" aria-label="Cantera Manager">
  <defs>
    <linearGradient id="cnBg" x1="128" y1="40" x2="384" y2="472" gradientUnits="userSpaceOnUse">
      <stop offset="0" stop-color="#D26A4F"/>
      <stop offset="1" stop-color="#A5382B"/>
    </linearGradient>
  </defs>
  <rect x="16" y="16" width="480" height="480" rx="116" fill="url(#cnBg)"/>
  <!-- management ring (open at bottom) -->
  <path d="M 181 385.9 A 150 150 0 1 1 331 385.9" fill="none" stroke="#FFF6F2" stroke-width="20" stroke-linecap="round" opacity="0.95"/>
  <!-- the cantera gem: the ball's pentagon, cut like quarried stone -->
  <path d="M256 144 L356.8 217.2 L318.3 335.8 L193.7 335.8 L155.2 217.2 Z" fill="#FFF6F2"/>
  <path d="M256 206 L297.8 236.4 L281.9 285.6 L230.1 285.6 L214.2 236.4 Z" fill="#A5382B" opacity="0.14"/>
  <g stroke="#A5382B" stroke-width="6" stroke-linecap="round" stroke-linejoin="round" fill="none" opacity="0.85">
    <path d="M256 206 L297.8 236.4 L281.9 285.6 L230.1 285.6 L214.2 236.4 Z"/>
    <path d="M256 206 L256 144"/>
    <path d="M297.8 236.4 L356.8 217.2"/>
    <path d="M281.9 285.6 L318.3 335.8"/>
    <path d="M230.1 285.6 L193.7 335.8"/>
    <path d="M214.2 236.4 L155.2 217.2"/>
  </g>
</svg>
